<?xml version="1.0" encoding="utf-8"?>
<!-- Generator: Adobe Illustrator 24.1.1, SVG Export Plug-In . SVG Version: 6.00 Build 0)  -->
<svg version="1.1" id="Layer_1" xmlns="http://www.w3.org/2000/svg" xmlns:xlink="http://www.w3.org/1999/xlink" x="0px" y="0px"
	 viewBox="0 0 35 48" style="enable-background:new 0 0 35 48;" xml:space="preserve">
<style type="text/css">
	.st0{display:none;}
	.st1{display:inline;}
	.st2{clip-path:url(#SVGID_2_);}
	.st3{fill:#FF6612;}
	.st4{fill:#62637C;}
	.st5{display:inline;fill:#62637C;}
	.st6{display:inline;fill:#FF6612;}
	.st7{clip-path:url(#SVGID_4_);}
	.st8{clip-path:url(#SVGID_6_);}
</style>
<g class="st0">
	<g class="st1">
		<defs>
			<rect id="SVGID_1_" x="6.2" y="9" width="22.5" height="30"/>
		</defs>
		<clipPath id="SVGID_2_">
			<use xlink:href="#SVGID_1_"  style="overflow:visible;"/>
		</clipPath>
		<g class="st2">
			<rect x="14.8" y="29.4" class="st3" width="6.4" height="8.6"/>
			<path class="st4" d="M7.8,10.2c-0.4,0-0.6,0-0.9,0c-0.4,0-0.7-0.2-0.7-0.6C6.3,9.2,6.5,9,6.9,9c0.8,0,1.6,0,2.3,0
				c6.2,0,12.3,0,18.5,0c0.1,0,0.2,0,0.4,0c0.4,0,0.7,0.3,0.6,0.6c0,0.2-0.4,0.5-0.6,0.6c-0.3,0.1-0.6,0-1,0c0,0.3,0,0.6,0,0.8
				c0,11.3,0,15.2,0,26.5c0,1.1-0.2,1.5-1.5,1.5c-5.4-0.1-10.8,0-16.2,0c-1.3,0-1.7-0.4-1.7-1.7c0-11.2,0-15,0-26.2
				C7.8,10.8,7.8,10.6,7.8,10.2z M9.1,10.3c0,11.6,0,15.9,0,27.4c5.7,0,11.3,0,16.9,0c0-11.6,0-15.8,0-27.4
				C20.3,10.3,14.7,10.3,9.1,10.3z"/>
			<path class="st4" d="M20.2,30.6c-1.8,0-3.6,0-5.4,0c0,0.2,0,0.4,0,0.6c0,1.7,0,4.6,0,6.3c0,0.4-0.1,0.8-0.6,0.8
				c-0.5,0-0.6-0.3-0.6-0.8c0-2.1,0-5.3,0-7.4c0-0.5,0.3-0.8,0.8-0.8c2.1,0,4.2,0,6.3,0c0.5,0,0.8,0.3,0.8,0.8c0,2,0,5.2,0,7.3
				c0,0.2,0,0.3,0,0.5c-0.1,0.2-0.4,0.4-0.5,0.4c-0.2,0-0.5-0.2-0.6-0.4c-0.1-0.1,0-0.4,0-0.6C20.2,35.5,20.2,32.5,20.2,30.6z"/>
			<path class="st4" d="M24.1,15.8c0,0.6,0,1.3,0,1.9c0,0.5-0.2,0.7-0.7,0.7c-1.3,0-2.6,0-4,0c-0.5,0-0.7-0.3-0.7-0.7
				c0-1.3,0-2.6,0-3.9c0-0.5,0.3-0.7,0.8-0.7c1.3,0,2.6,0,3.9,0c0.5,0,0.8,0.3,0.8,0.8C24.2,14.5,24.2,15.1,24.1,15.8
				C24.2,15.8,24.2,15.8,24.1,15.8z M22.9,17.2c0-1,0-1.9,0-2.9c-1,0-2,0-2.9,0c0,1,0,1.9,0,2.9C21,17.2,21.9,17.2,22.9,17.2z"/>
			<path class="st4" d="M21.4,25.6c-0.6,0-1.3,0-1.9,0c-0.5,0-0.8-0.3-0.8-0.8c0-1.3,0-2.6,0-3.9c0-0.5,0.2-0.7,0.7-0.7
				c1.3,0,2.6,0,4,0c0.5,0,0.7,0.3,0.7,0.8c0,1.2,0,2.5,0,3.7c0,0.7-0.1,0.9-0.9,0.9C22.6,25.6,22,25.6,21.4,25.6z M22.9,21.4
				c-1,0-2,0-2.9,0c0,1,0,2,0,2.9c1,0,1.9,0,2.9,0C22.9,23.4,22.9,22.4,22.9,21.4z"/>
			<path class="st4" d="M13.5,13c0.6,0,1.3,0,1.9,0c0.5,0,0.7,0.2,0.7,0.8c0,1.3,0,2.6,0,3.8c0,0.5-0.2,0.8-0.8,0.8
				c-1.3,0-2.6,0-3.9,0c-0.5,0-0.8-0.3-0.8-0.8c0-1.3,0-2.6,0-3.9c0-0.5,0.2-0.8,0.8-0.8C12.2,13,12.9,13,13.5,13z M12,17.2
				c1,0,2,0,2.9,0c0-1,0-1.9,0-2.9c-1,0-1.9,0-2.9,0C12,15.2,12,16.2,12,17.2z"/>
			<path class="st4" d="M16.2,22.9c0,0.7,0,1.3,0,2c0,0.5-0.2,0.7-0.7,0.7c-1.3,0-2.6,0-4,0c-0.5,0-0.7-0.2-0.7-0.7c0-1.3,0-2.6,0-4
				c0-0.5,0.3-0.7,0.7-0.7c1.3,0,2.6,0,3.9,0c0.6,0,0.8,0.3,0.8,0.8C16.2,21.6,16.2,22.3,16.2,22.9L16.2,22.9z M14.9,21.4
				c-1,0-1.9,0-2.9,0c0,1,0,2,0,3c1,0,1.9,0,2.9,0C14.9,23.4,14.9,22.4,14.9,21.4z"/>
		</g>
	</g>
</g>
<g class="st0">
	<path class="st5" d="M20,17.8c7.4,2,11.6,6.6,12.5,14.2c0.6,0.1,1.2,0,1.7,0.2c0.3,0.1,0.7,0.6,0.7,0.8c-0.1,0.4-0.4,0.7-0.7,1
		c-0.1,0.1-0.5,0-0.7,0c-10.5,0-21.1,0-31.6,0c-1.1,0-1.9-0.2-1.4-1.4c0.2-0.4,1.1-0.4,1.9-0.7c1-7.6,5.2-12.4,12.9-14.1
		c-0.2-2.6,0.6-3.7,2.5-3.7C19.5,14.1,20.2,15.3,20,17.8z M30.7,32c-0.5-4.8-2.7-8.3-6.6-10.5c-5-2.8-10-2.6-14.6,0.7
		c-3.3,2.3-5.4,5.5-5.3,9.9C13,32,21.7,32,30.7,32z"/>
	<path class="st6" d="M21,26.9c-0.1,0.1-0.3,0.4-0.5,0.6c-0.3-0.2-0.7-0.4-0.8-0.7c-0.6-2.7-2.3-4.3-5.1-4.9c-0.3-0.1-0.5-0.7-0.7-1
		c0.3-0.2,0.6-0.5,0.9-0.5C17.8,20.6,21.1,23.9,21,26.9z"/>
</g>
<g class="st0">
	<g class="st1">
		<defs>
			<rect id="SVGID_3_" x="0.4" y="16.1" width="34.1" height="15.8"/>
		</defs>
		<clipPath id="SVGID_4_">
			<use xlink:href="#SVGID_3_"  style="overflow:visible;"/>
		</clipPath>
		<g class="st7">
			<path class="st4" d="M15.2,22.7c-4.2,0-8.5,0-12.7,0c-0.7,0-0.9,0.2-0.9,0.9c0,0.9,0,1.9,0,2.8c0,0.5,0.2,0.9,0.7,1.1
				c0.3,0.2,0.5,0.5,0.3,0.8c-0.1,0.3-0.5,0.4-0.8,0.3c-0.8-0.4-1.3-1-1.3-2c0-1.1,0-2.2,0-3.3c0-0.8,0.5-1.5,1.3-1.8
				c0.1,0,0.3-0.2,0.4-0.3c0.7-1,1.4-2,2.2-3c1-1.4,2.4-2.1,4.1-2.1c3.1,0,6.3,0,9.4,0c0.5,0,1,0.2,1.5,0.5c2.4,1.6,4.9,3.2,7.3,4.8
				c0.1,0.1,0.3,0.1,0.5,0.1c2,0,3.9,0.5,5.7,1.5c0.5,0.3,0.9,0.6,1.3,1c0.4,0.4,0.5,0.8,0.5,1.4c0,0.6,0,1.3,0,1.9
				c0,0.5-0.2,0.9-0.7,1s-0.9,0.3-1.4,0.3c-0.8,0.1-1.6,0.1-2.4,0.1c-0.4,0-0.7-0.2-0.7-0.6c0-0.4,0.3-0.6,0.7-0.6
				c0.9,0,1.9-0.1,2.8-0.2c0.6-0.1,0.6-0.1,0.6-0.7c0-0.4,0-0.8,0-1.2c0-0.4-0.1-0.7-0.4-0.9c-0.5-0.4-1-0.7-1.6-1
				c-1.4-0.6-2.8-1-4.4-1C23.1,22.7,19.2,22.7,15.2,22.7z M13,21.4c3.8,0,7.6,0,11.5,0c-0.2-0.1-0.3-0.2-0.4-0.2
				c-1.8-1.2-3.6-2.3-5.4-3.5c-0.4-0.3-0.8-0.4-1.3-0.4c-1.4,0-2.8,0-4.2,0c-0.1,0-0.2,0-0.3,0C13,18.7,13,20.1,13,21.4z M11.8,17.3
				c-1.2,0-2.3,0-3.5,0c-1.2,0-2.3,0.6-3,1.6c-0.6,0.8-1.1,1.5-1.7,2.3c0,0.1-0.1,0.1-0.1,0.2c0.1,0,0.1,0,0.2,0c2.6,0,5.3,0,7.9,0
				c0.2,0,0.3-0.1,0.3-0.3c0-1.2,0-2.4,0-3.6C11.8,17.5,11.8,17.4,11.8,17.3z"/>
			<path class="st3" d="M6.6,31.9c-2,0-3.6-1.7-3.6-3.7s1.7-3.7,3.6-3.7c2,0,3.6,1.7,3.6,3.7C10.2,30.2,8.6,31.9,6.6,31.9z
				 M6.6,30.7c1.3,0,2.4-1.1,2.5-2.5S8,25.7,6.7,25.7c-1.3,0-2.4,1.1-2.5,2.5C4.2,29.5,5.3,30.7,6.6,30.7z"/>
			<path class="st3" d="M28.8,28.2c0,2-1.6,3.7-3.6,3.7s-3.6-1.6-3.6-3.7c0-2,1.6-3.7,3.6-3.7C27.2,24.5,28.8,26.1,28.8,28.2z
				 M22.8,28.2c0,1.4,1.1,2.5,2.4,2.5s2.4-1.1,2.5-2.5c0-1.4-1.1-2.5-2.4-2.5C23.9,25.7,22.8,26.8,22.8,28.2z"/>
			<path class="st4" d="M15.9,27.6c1.5,0,3.1,0,4.6,0c0.4,0,0.6,0.3,0.6,0.6c0,0.3-0.2,0.5-0.5,0.5c-0.1,0-0.1,0-0.2,0
				c-3,0-6,0-8.9,0c-0.5,0-0.8-0.3-0.7-0.7c0.1-0.3,0.3-0.5,0.6-0.5C12.9,27.6,14.4,27.6,15.9,27.6z"/>
		</g>
	</g>
</g>
<g>
	<g>
		<defs>
			<rect id="SVGID_5_" x="7.1" y="9" width="21.8" height="29.1"/>
		</defs>
		<clipPath id="SVGID_6_">
			<use xlink:href="#SVGID_5_"  style="overflow:visible;"/>
		</clipPath>
		<g class="st8">
			<rect x="15.4" y="28.8" class="st3" width="6.2" height="8.3"/>
			<path class="st4" d="M8.7,10.2c-0.4,0-0.6,0-0.9,0c-0.4,0-0.7-0.2-0.7-0.6c0-0.4,0.3-0.6,0.7-0.6C8.5,9,9.3,9,10,9c6,0,12,0,18,0
				c0.1,0,0.2,0,0.3,0c0.4,0,0.7,0.2,0.6,0.6c0,0.2-0.3,0.5-0.6,0.5c-0.3,0.1-0.6,0-0.9,0c0,0.3,0,0.6,0,0.8c0,10.9,0,14.7,0,25.7
				c0,1-0.2,1.4-1.4,1.4c-5.2-0.1-10.5,0-15.7,0c-1.3,0-1.6-0.4-1.6-1.7c0-10.8,0-14.5,0-25.4C8.7,10.8,8.7,10.6,8.7,10.2z
				 M9.9,10.3c0,11.3,0,15.4,0,26.6c5.5,0,10.9,0,16.4,0c0-11.3,0-15.3,0-26.6C20.8,10.3,15.3,10.3,9.9,10.3z"/>
			<path class="st4" d="M20.6,30c-1.8,0-3.5,0-5.2,0c0,0.2,0,0.4,0,0.6c0,1.6,0,4.4,0,6.1c0,0.4-0.1,0.8-0.5,0.8
				c-0.5,0-0.6-0.3-0.6-0.8c0-2,0-5.1,0-7.1c0-0.5,0.2-0.8,0.8-0.8c2,0,4,0,6.1,0c0.5,0,0.8,0.3,0.8,0.8c0,2,0,5.1,0,7
				c0,0.1,0,0.3,0,0.4c-0.1,0.2-0.3,0.4-0.5,0.4c-0.2,0-0.4-0.2-0.6-0.4c-0.1-0.1,0-0.4,0-0.6C20.6,34.7,20.6,31.8,20.6,30z"/>
			<path class="st4" d="M24.5,15.6c0,0.6,0,1.2,0,1.9c0,0.5-0.2,0.7-0.7,0.7c-1.3,0-2.6,0-3.8,0c-0.5,0-0.7-0.3-0.7-0.7
				c0-1.3,0-2.5,0-3.8c0-0.5,0.2-0.7,0.7-0.7c1.3,0,2.5,0,3.8,0c0.5,0,0.7,0.3,0.7,0.8C24.5,14.4,24.5,15,24.5,15.6
				C24.5,15.6,24.5,15.6,24.5,15.6z M23.3,17c0-1,0-1.9,0-2.8c-1,0-1.9,0-2.8,0c0,1,0,1.9,0,2.8C21.4,17,22.4,17,23.3,17z"/>
			<path class="st4" d="M21.9,25.1c-0.6,0-1.2,0-1.9,0c-0.5,0-0.7-0.2-0.7-0.7c0-1.3,0-2.5,0-3.8c0-0.4,0.2-0.7,0.7-0.7
				c1.3,0,2.6,0,3.8,0c0.5,0,0.7,0.3,0.7,0.7c0,1.2,0,2.4,0,3.6c0,0.7-0.1,0.8-0.9,0.9C23.1,25.1,22.5,25.1,21.9,25.1z M23.3,21.1
				c-1,0-1.9,0-2.8,0c0,1,0,1.9,0,2.8c1,0,1.9,0,2.8,0C23.3,23,23.3,22.1,23.3,21.1z"/>
			<path class="st4" d="M14.2,13c0.6,0,1.2,0,1.9,0c0.5,0,0.7,0.2,0.7,0.7c0,1.2,0,2.5,0,3.7c0,0.5-0.2,0.8-0.7,0.8
				c-1.2,0-2.5,0-3.7,0c-0.5,0-0.8-0.3-0.8-0.8c0-1.2,0-2.5,0-3.7c0-0.5,0.2-0.7,0.7-0.7C12.9,13,13.6,13,14.2,13z M12.7,17
				c1,0,1.9,0,2.9,0c0-1,0-1.9,0-2.8c-1,0-1.9,0-2.9,0C12.7,15.1,12.7,16,12.7,17z"/>
			<path class="st4" d="M16.8,22.6c0,0.6,0,1.3,0,1.9c0,0.4-0.2,0.7-0.7,0.7c-1.3,0-2.6,0-3.8,0c-0.5,0-0.7-0.2-0.7-0.7
				c0-1.3,0-2.6,0-3.8c0-0.5,0.2-0.7,0.7-0.7c1.3,0,2.5,0,3.8,0c0.5,0,0.7,0.3,0.7,0.8C16.8,21.3,16.8,21.9,16.8,22.6
				C16.8,22.6,16.8,22.6,16.8,22.6z M15.6,21.1c-1,0-1.9,0-2.8,0c0,1,0,1.9,0,2.9c1,0,1.9,0,2.8,0C15.6,23,15.6,22.1,15.6,21.1z"/>
		</g>
	</g>
</g>
</svg>
