<?xml version="1.0" encoding="utf-8"?>
<!-- Generator: Adobe Illustrator 23.1.1, SVG Export Plug-In . SVG Version: 6.00 Build 0)  -->
<svg version="1.1" id="Layer_1" xmlns="http://www.w3.org/2000/svg" xmlns:xlink="http://www.w3.org/1999/xlink" x="0px" y="0px"
	 viewBox="0 0 35 48" style="enable-background:new 0 0 35 48;" xml:space="preserve">
<style type="text/css">
	.st0{display:none;}
	.st1{display:inline;}
	.st2{display:inline;clip-path:url(#SVGID_2_);}
	.st3{fill:#FF6612;}
	.st4{fill:#62637C;}
	.st5{display:inline;fill:#62637C;}
	.st6{display:inline;fill:#FF6612;}
	.st7{clip-path:url(#SVGID_4_);}
	.st8{display:inline;clip-path:url(#SVGID_6_);}
</style>
<g class="st0">
	<defs>
		<rect id="SVGID_1_" x="6.23" y="8.99" width="22.5" height="30"/>
	</defs>
	<clipPath id="SVGID_2_" class="st1">
		<use xlink:href="#SVGID_1_"  style="overflow:visible;"/>
	</clipPath>
	<g class="st2">
		<rect x="14.8" y="29.35" class="st3" width="6.43" height="8.57"/>
		<path class="st4" d="M7.81,10.22c-0.37,0-0.64,0.01-0.9,0c-0.4-0.01-0.69-0.18-0.68-0.63c0.02-0.41,0.3-0.57,0.67-0.58
			C7.68,9,8.46,8.99,9.24,8.99C15.41,9,21.58,9,27.75,9.01c0.12,0,0.23,0,0.35,0c0.38,0.03,0.69,0.25,0.61,0.62
			c-0.05,0.23-0.36,0.47-0.6,0.56c-0.27,0.1-0.6,0.02-0.97,0.02c0,0.32,0,0.57,0,0.82c0,11.28-0.01,15.2,0.01,26.48
			c0,1.08-0.17,1.49-1.47,1.47c-5.39-0.06-10.79-0.03-16.18-0.03c-1.3,0-1.7-0.4-1.7-1.71c0-11.19,0-15.01,0-26.19
			C7.81,10.81,7.81,10.56,7.81,10.22z M9.05,10.29c0,11.64,0,15.86,0,27.43c5.66,0,11.27,0,16.87,0c0-11.62,0-15.83,0-27.43
			C20.29,10.29,14.69,10.29,9.05,10.29z"/>
		<path class="st4" d="M20.16,30.62c-1.82,0-3.56,0-5.39,0c0,0.24,0,0.44,0,0.65c0,1.69,0,4.56,0,6.25c0,0.42-0.09,0.78-0.56,0.79
			c-0.5,0.01-0.63-0.34-0.63-0.79c0.01-2.07,0.01-5.3,0-7.36c0-0.54,0.25-0.79,0.78-0.79c2.08,0,4.17-0.01,6.25,0
			c0.54,0,0.79,0.27,0.79,0.79c-0.01,2.03-0.02,5.22-0.03,7.25c0,0.15,0.03,0.35-0.05,0.45c-0.14,0.18-0.36,0.44-0.53,0.43
			c-0.21-0.02-0.45-0.24-0.58-0.44c-0.09-0.14-0.05-0.38-0.05-0.57C20.16,35.48,20.16,32.5,20.16,30.62z"/>
		<path class="st4" d="M24.15,15.77c0,0.64,0,1.28,0,1.93c0,0.48-0.24,0.72-0.72,0.73c-1.32,0-2.64,0.01-3.96,0
			c-0.48,0-0.71-0.27-0.71-0.74c0-1.3,0-2.61,0-3.91c0-0.51,0.25-0.74,0.76-0.74c1.3,0.01,2.6-0.01,3.91,0.01
			c0.53,0.01,0.76,0.28,0.75,0.81c-0.01,0.64,0,1.28,0,1.92C24.17,15.77,24.16,15.77,24.15,15.77z M22.91,17.18c0-1.01,0-1.95,0-2.9
			c-0.99,0-1.95,0-2.9,0c0,0.99,0,1.93,0,2.9C20.99,17.18,21.93,17.18,22.91,17.18z"/>
		<path class="st4" d="M21.44,25.6c-0.64,0-1.28-0.01-1.93,0c-0.52,0.01-0.75-0.25-0.75-0.75c0-1.3,0-2.61,0-3.91
			c0-0.46,0.22-0.73,0.71-0.73c1.32,0,2.65,0,3.97,0c0.52,0,0.74,0.3,0.74,0.77c0,1.24-0.02,2.49-0.03,3.73
			c-0.01,0.74-0.15,0.88-0.9,0.88C22.65,25.6,22.05,25.6,21.44,25.6z M22.92,21.44c-1,0-1.95,0-2.9,0c0,1,0,1.96,0,2.93
			c0.99,0,1.93,0,2.9,0C22.92,23.39,22.92,22.44,22.92,21.44z"/>
		<path class="st4" d="M13.52,13.03c0.64,0,1.28,0,1.92,0c0.51,0,0.74,0.24,0.74,0.75c-0.01,1.28-0.02,2.57,0,3.85
			c0.01,0.54-0.24,0.79-0.77,0.79c-1.28,0-2.56,0-3.85,0c-0.53,0-0.78-0.26-0.77-0.79c0.01-1.28,0.01-2.57,0-3.85
			c0-0.51,0.24-0.75,0.75-0.75C12.2,13.04,12.86,13.03,13.52,13.03z M12.01,17.17c1.01,0,1.97,0,2.94,0c0-0.99,0-1.93,0-2.89
			c-0.99,0-1.95,0-2.94,0C12.01,15.24,12.01,16.17,12.01,17.17z"/>
		<path class="st4" d="M16.17,22.94c0,0.66,0,1.32,0,1.98c0,0.46-0.23,0.68-0.69,0.68c-1.32,0-2.64,0-3.96,0
			c-0.48,0-0.73-0.23-0.73-0.71c0-1.32,0-2.65,0-3.97c0-0.48,0.25-0.71,0.73-0.71c1.3,0,2.6,0.01,3.91,0c0.55,0,0.77,0.27,0.75,0.8
			C16.17,21.65,16.18,22.3,16.17,22.94C16.17,22.94,16.17,22.94,16.17,22.94z M14.95,21.43c-1,0-1.94,0-2.92,0c0,1,0,1.97,0,2.95
			c1,0,1.94,0,2.92,0C14.95,23.39,14.95,22.44,14.95,21.43z"/>
	</g>
</g>
<g class="st0">
	<path class="st5" d="M19.96,17.77c7.44,1.96,11.57,6.61,12.47,14.18c0.59,0.07,1.18,0.05,1.72,0.22c0.29,0.1,0.7,0.56,0.65,0.78
		c-0.07,0.36-0.43,0.69-0.74,0.95c-0.14,0.12-0.46,0.03-0.7,0.03c-10.54,0-21.08-0.01-31.61,0.01c-1.06,0-1.92-0.2-1.4-1.44
		c0.16-0.38,1.13-0.42,1.86-0.66c0.95-7.56,5.16-12.39,12.85-14.11c-0.17-2.61,0.6-3.74,2.54-3.7
		C19.46,14.08,20.22,15.28,19.96,17.77z M30.72,32.02c-0.49-4.78-2.67-8.28-6.62-10.55c-4.96-2.84-10-2.59-14.6,0.68
		c-3.26,2.31-5.42,5.52-5.35,9.87C13.03,32.02,21.71,32.02,30.72,32.02z"/>
	<path class="st6" d="M21.03,26.88c-0.08,0.1-0.3,0.37-0.52,0.64c-0.26-0.23-0.7-0.41-0.76-0.68c-0.62-2.67-2.25-4.29-5.05-4.86
		c-0.3-0.06-0.48-0.67-0.72-1.03c0.3-0.17,0.61-0.5,0.91-0.48C17.8,20.59,21.07,23.88,21.03,26.88z"/>
</g>
<g>
	<defs>
		<rect id="SVGID_3_" x="0.43" y="8.83" width="34.14" height="30.35"/>
	</defs>
	<clipPath id="SVGID_4_">
		<use xlink:href="#SVGID_3_"  style="overflow:visible;"/>
	</clipPath>
	<g class="st7">
		<ellipse class="st3" cx="23.19" cy="12.62" rx="2.53" ry="2.53"/>
		<ellipse class="st3" cx="11.81" cy="11.35" rx="2.53" ry="2.53"/>
		<path class="st4" d="M1.13,27.78C1.64,26.5,2,25.17,2.42,23.86c0.33-1.02,0.66-2.04,0.99-3.07c0.33-1.04,0.65-2.1,1-3.13
			c0.24-0.69,0.46-1.4,0.8-2.04c0.67-1.27,1.74-2.12,3.07-2.61c0.09-0.03,0.2-0.11,0.24-0.2c0.08-0.2,0.13-0.42,0.19-0.63
			c0.13-0.47,0.21-0.97,0.4-1.42c0.65-1.53,2.34-2.34,3.98-1.71c1.29,0.49,2.14,1.88,1.96,3.25c-0.11,0.85-0.21,1.7-0.31,2.55
			c-0.01,0.12,0.03,0.26,0.1,0.36c0.72,1.05,1.03,2.23,1.02,3.5c0,0.12,0,0.23,0,0.38c0.24,0,0.44,0,0.63,0c0.87,0,1.73,0,2.62,0
			c0.01-0.15,0.02-0.28,0.03-0.41c0.04-1.3,0.43-2.47,1.23-3.48c0.15-0.19,0.2-0.36,0.17-0.58c-0.09-0.7-0.15-1.4-0.25-2.1
			c-0.08-0.55-0.07-1.1,0.13-1.61c0.48-1.22,1.37-1.91,2.66-2.06c1.17-0.14,2.55,0.6,3.01,1.71c0.3,0.73,0.51,1.5,0.68,2.27
			c0.1,0.43,0.31,0.62,0.68,0.81c1.34,0.69,2.27,1.76,2.77,3.2c0.49,1.42,0.92,2.85,1.39,4.27c0.31,0.96,0.63,1.93,0.94,2.89
			c0.34,1.06,0.68,2.13,1.01,3.19c0.28,0.88,0.6,1.75,0.82,2.64c0.29,1.19,0.25,2.41-0.08,3.6c-0.43,1.55-1.23,2.86-2.47,3.91
			c-1.3,1.11-2.78,1.71-4.46,1.82c-1.74,0.11-3.36-0.33-4.79-1.36c-2.05-1.47-3.18-3.5-3.29-6.05c-0.07-1.76-0.06-3.52-0.06-5.27
			c0-0.28-0.09-0.33-0.35-0.33c-0.94,0.01-1.87,0.02-2.81,0c-0.28,0-0.33,0.1-0.33,0.35c0,1.26,0,2.53-0.04,3.79
			c-0.02,0.71,0.09,1.43-0.14,2.13c-0.22,0.68-0.36,1.41-0.67,2.05c-1.03,2.12-2.69,3.51-4.96,4.11c-1.37,0.36-2.74,0.33-4.1-0.08
			c-1.58-0.48-2.89-1.4-3.88-2.74c-0.92-1.25-1.45-2.64-1.53-4.22C0.37,30.23,0.64,29,1.13,27.78z M24.84,12.49
			c-0.09-0.36-0.15-0.74-0.3-1.07c-0.3-0.68-0.92-0.93-1.64-0.72c-0.53,0.15-0.99,0.8-0.87,1.45c0.07,0.43,0.11,0.86,0.16,1.29
			c0.01,0.05,0.03,0.09,0.06,0.18c0.85-0.45,1.74-0.63,2.7-0.65C24.91,12.79,24.88,12.64,24.84,12.49z M26.92,37.38
			c3.22,0,5.9-2.69,5.85-5.96c-0.05-3.36-2.56-5.92-5.85-5.94c-3.3-0.02-5.9,2.74-5.87,5.98C21.04,34.66,23.67,37.38,26.92,37.38z
			 M20.99,26.24c0,0.05,0.01,0.1,0.02,0.25c1.28-1.44,2.78-2.38,4.62-2.69c1.85-0.31,3.59,0.03,5.22,0.98
			c0.01-0.03,0.03-0.05,0.04-0.08c-0.32-0.99-0.64-1.98-0.96-2.98c-0.39-1.2-0.78-2.41-1.15-3.62c-0.28-0.93-0.65-1.8-1.42-2.42
			c-0.91-0.73-1.96-1.06-3.12-0.86c-1.48,0.26-2.52,1.13-3.06,2.54c-0.17,0.45-0.26,0.96-0.26,1.45
			C20.92,21.29,20.97,23.77,20.99,26.24z M19.17,21.07c-0.02-0.07-0.11-0.14-0.18-0.18c-0.06-0.03-0.14-0.01-0.21-0.01
			c-0.97,0-1.93,0-2.89,0c-0.03,0.05-0.04,0.06-0.04,0.07c-0.13,0.72-0.09,0.77,0.62,0.77c0.8,0,1.6-0.01,2.39,0
			c0.25,0,0.35-0.09,0.32-0.33C19.17,21.29,19.2,21.17,19.17,21.07z M16.31,24.34c0.84,0,1.69,0,2.53,0.01c0.11,0,0.21,0,0.36,0
			c0-0.24,0.02-0.45-0.01-0.66c-0.01-0.07-0.14-0.17-0.21-0.17c-0.98-0.01-1.97-0.01-2.95-0.01c-0.16,0-0.23,0.06-0.24,0.23
			C15.73,24.34,15.73,24.34,16.31,24.34z M13.18,11.44c-0.18-0.5-0.8-0.87-1.33-0.81c-0.6,0.07-1.09,0.53-1.19,1.09
			c-0.06,0.31-0.15,0.62-0.24,0.97c0.97,0.07,1.82,0.35,2.7,0.84C13.12,12.8,13.44,12.14,13.18,11.44z M14.01,25.52
			c0.02-2.37,0.06-4.75,0.06-7.12c0-2.09-1.76-3.85-3.81-3.9c-1.09-0.02-2.02,0.35-2.8,1.06c-0.52,0.47-0.86,1.09-1.08,1.78
			c-0.39,1.24-0.79,2.47-1.18,3.71c-0.34,1.05-0.67,2.1-1.01,3.16c-0.01,0.04-0.01,0.08-0.03,0.14c3.69-1.78,6.94-1.23,9.81,1.77
			C13.99,25.89,14.01,25.71,14.01,25.52z M2.5,32.99c0.76,2.33,3.28,4.42,6.41,3.97c0.99-0.18,1.7-0.47,2.18-0.74
			c0-0.01-0.01-0.02-0.01-0.03c1.55-1,2.53-2.44,2.8-4.33c0.2-1.45-0.11-2.83-0.93-4.06c-1.74-2.62-4.93-3.34-7.46-2.07
			C2.67,27.15,1.62,30.32,2.5,32.99z"/>
	</g>
</g>
<g class="st0">
	<defs>
		<rect id="SVGID_5_" x="0.43" y="16.12" width="34.14" height="15.76"/>
	</defs>
	<clipPath id="SVGID_6_" class="st1">
		<use xlink:href="#SVGID_5_"  style="overflow:visible;"/>
	</clipPath>
	<g class="st8">
		<path class="st4" d="M15.2,22.66c-4.23,0-8.46,0-12.69,0c-0.68,0-0.91,0.24-0.91,0.94c0,0.94,0.01,1.88,0,2.82
			c-0.01,0.52,0.21,0.88,0.66,1.11c0.33,0.16,0.45,0.48,0.31,0.79c-0.13,0.3-0.46,0.43-0.79,0.28c-0.83-0.38-1.3-1.05-1.33-1.99
			c-0.03-1.09-0.02-2.19-0.01-3.28c0.01-0.83,0.53-1.51,1.31-1.78c0.15-0.05,0.3-0.16,0.39-0.29c0.73-1,1.44-2.01,2.17-3
			c1.02-1.39,2.38-2.12,4.07-2.13c3.14-0.02,6.27-0.01,9.41-0.01c0.53,0,1.01,0.16,1.46,0.46c2.44,1.6,4.89,3.2,7.34,4.79
			c0.14,0.09,0.34,0.1,0.51,0.09c2.03-0.05,3.91,0.52,5.67,1.52c0.47,0.27,0.88,0.65,1.27,1.04c0.36,0.36,0.51,0.84,0.5,1.37
			c-0.01,0.63-0.02,1.26,0,1.89c0.02,0.53-0.22,0.89-0.68,1.05c-0.46,0.16-0.94,0.29-1.42,0.33c-0.81,0.08-1.62,0.09-2.43,0.12
			c-0.43,0.01-0.68-0.23-0.67-0.61c0.01-0.37,0.25-0.56,0.67-0.58c0.93-0.05,1.86-0.09,2.79-0.18c0.59-0.06,0.59-0.09,0.59-0.69
			c0-0.41-0.02-0.81,0.01-1.22c0.02-0.39-0.11-0.71-0.4-0.91c-0.51-0.36-1.02-0.74-1.58-1c-1.38-0.64-2.82-0.98-4.35-0.97
			C23.13,22.68,19.16,22.66,15.2,22.66z M13,21.44c3.84,0,7.65,0,11.54,0c-0.16-0.11-0.25-0.17-0.35-0.23
			c-1.79-1.17-3.58-2.32-5.36-3.5c-0.42-0.28-0.83-0.4-1.32-0.4c-1.39,0.02-2.79,0.01-4.18,0.01c-0.11,0-0.22,0.01-0.33,0.02
			C13,18.72,13,20.08,13,21.44z M11.82,17.31c-1.19,0-2.34-0.02-3.5,0c-1.24,0.02-2.25,0.57-3.01,1.58
			c-0.57,0.77-1.12,1.55-1.68,2.33c-0.05,0.07-0.08,0.14-0.14,0.23c0.08,0.01,0.13,0.02,0.17,0.02c2.64,0,5.29,0,7.93,0.01
			c0.21,0,0.25-0.09,0.25-0.28c-0.01-1.21,0-2.42,0-3.62C11.84,17.5,11.83,17.42,11.82,17.31z"/>
		<path class="st3" d="M6.63,31.88c-1.97-0.01-3.59-1.68-3.58-3.71c0.01-2.03,1.65-3.69,3.62-3.67c1.98,0.02,3.59,1.69,3.57,3.72
			C10.23,30.24,8.61,31.89,6.63,31.88z M6.63,30.69c1.35,0.01,2.45-1.11,2.46-2.49c0.01-1.38-1.08-2.52-2.42-2.53
			c-1.35-0.01-2.45,1.11-2.46,2.49C4.2,29.55,5.29,30.68,6.63,30.69z"/>
		<path class="st3" d="M28.83,28.18c0.01,2.04-1.6,3.7-3.58,3.7c-1.98,0-3.6-1.65-3.6-3.68c0-2.04,1.6-3.7,3.59-3.7
			C27.21,24.49,28.82,26.14,28.83,28.18z M22.8,28.18c0,1.39,1.09,2.51,2.44,2.51c1.35,0,2.44-1.12,2.45-2.5
			c0-1.38-1.1-2.51-2.44-2.51C23.89,25.68,22.8,26.8,22.8,28.18z"/>
		<path class="st4" d="M15.88,27.6c1.52,0,3.05,0,4.57,0c0.4,0,0.64,0.25,0.61,0.62c-0.02,0.29-0.21,0.5-0.5,0.54
			c-0.07,0.01-0.15,0.01-0.23,0.01c-2.98,0-5.97,0-8.95,0c-0.48,0-0.77-0.29-0.7-0.68c0.06-0.31,0.28-0.49,0.64-0.49
			C12.85,27.6,14.36,27.6,15.88,27.6z"/>
	</g>
</g>
</svg>
